<svg xmlns="http://www.w3.org/2000/svg" width="68.009" height="68.442" viewBox="0 0 68.009 68.442"><path d="M932.435,160.505a8.043,8.043,0,0,1,11.594,11.151l-9,9.427a7.128,7.128,0,0,0-1.277,1.539,3.191,3.191,0,0,0-.337,1.228,7.041,7.041,0,0,0,.311,1.976l5.6,24.258a7.172,7.172,0,0,1,.314,2.028,3.194,3.194,0,0,1-.36,1.25,7.1,7.1,0,0,1-1.341,1.552l-1.2,1.2c-1.963,1.963-2.945,2.945-3.949,3.123a3.243,3.243,0,0,1-2.5-.59c-.817-.609-1.257-1.924-2.135-4.561l-6.512-19.531-10.836,10.836a6.857,6.857,0,0,0-1.185,1.354,3.114,3.114,0,0,0-.382,1.088,6.922,6.922,0,0,0,.081,1.8l.6,5.355a6.914,6.914,0,0,1,.081,1.795,3.25,3.25,0,0,1-.382,1.092,7.093,7.093,0,0,1-1.186,1.351l-.641.638c-1.533,1.536-2.3,2.3-3.149,2.524a3.24,3.24,0,0,1-2.232-.224c-.794-.382-1.393-1.286-2.595-3.087l-5.083-7.623a6.4,6.4,0,0,0-.447-.628,3.19,3.19,0,0,0-.36-.363,7.706,7.706,0,0,0-.629-.447l-7.623-5.08c-1.8-1.2-2.705-1.8-3.09-2.595a3.241,3.241,0,0,1-.22-2.232c.223-.852.988-1.62,2.52-3.152l.641-.638a6.863,6.863,0,0,1,1.351-1.186,3.117,3.117,0,0,1,1.089-.382,6.936,6.936,0,0,1,1.8.081l5.355.6a6.935,6.935,0,0,0,1.8.081,3.256,3.256,0,0,0,1.089-.382,6.888,6.888,0,0,0,1.351-1.186l10.84-10.836-19.535-6.512c-2.634-.878-3.949-1.319-4.558-2.138a3.236,3.236,0,0,1-.59-2.494c.178-1,1.16-1.986,3.123-3.949l1.2-1.2a7.009,7.009,0,0,1,1.552-1.341,3.2,3.2,0,0,1,1.251-.36,7.067,7.067,0,0,1,2.028.314L918.828,171a7.062,7.062,0,0,0,1.992.314,3.2,3.2,0,0,0,1.331-.4,7.055,7.055,0,0,0,1.5-1.344Z" transform="translate(-880.247 -156.058)" fill="none" stroke="#fff" stroke-linecap="round" stroke-linejoin="round" stroke-width="4"/></svg>