<svg xmlns="http://www.w3.org/2000/svg" xmlns:xlink="http://www.w3.org/1999/xlink" width="848.82" height="162.222" viewBox="0 0 848.82 162.222"><defs><linearGradient id="a" x1="-0.062" y1="0.5" x2="1.029" y2="0.557" gradientUnits="objectBoundingBox"><stop offset="0" stop-color="#6366f1"/><stop offset="1" stop-color="#0bf0ed"/></linearGradient></defs><path d="M-146.247-56.194q22.412,0,36.731,8.449a50.793,50.793,0,0,1,20.9,22.59A73.931,73.931,0,0,1-82.034,6.418a72.28,72.28,0,0,1-6.759,31.573,51.752,51.752,0,0,1-21.167,22.59q-14.408,8.449-36.287,8.449h-46.781V-56.194Zm2.668,103.879q12.1,0,20.545-5.781A35.507,35.507,0,0,0-110.405,26.7a49.459,49.459,0,0,0,4.18-20.278,49.459,49.459,0,0,0-4.18-20.278,35.507,35.507,0,0,0-12.629-15.208q-8.449-5.781-20.545-5.781h-25.258V47.685ZM17.576,20.826a55.029,55.029,0,0,1-.534,6.937h-68.3q1.245,10.673,7.827,16.72t17.254,6.048q14.408,0,19.033-14.23H15.975Q12.773,51.776,2.19,61.115t-28.549,9.338q-14.764,0-25.436-6.226A40.708,40.708,0,0,1-67.982,47.062,54.771,54.771,0,0,1-73.5,22.071q0-14.586,5.692-25.525a40.312,40.312,0,0,1,16.276-16.9q10.584-5.959,24.814-5.959A48.727,48.727,0,0,1-5.1-21.419,38.656,38.656,0,0,1,11.261-5.944Q17.576,4.639,17.576,20.826ZM-5.192,12.11Q-5.9,3.216-11.24-2.3T-26-7.812q-20.278,0-24.369,19.922Zm67.77,31.662a36.055,36.055,0,0,1,1.245,10.317q0,2.668,2.135,2.668t2.134-2.668a36.055,36.055,0,0,1,1.245-10.317l20.811-68.66H114.34L82.323,69.03H49.594L17.576-24.888H41.767ZM205.412,20.826a55.026,55.026,0,0,1-.534,6.937h-68.3q1.245,10.673,7.827,16.72t17.254,6.048q14.408,0,19.033-14.23h23.124q-3.2,15.475-13.785,24.814t-28.549,9.338q-14.764,0-25.436-6.226a40.708,40.708,0,0,1-16.187-17.165,54.771,54.771,0,0,1-5.514-24.991q0-14.586,5.692-25.525a40.312,40.312,0,0,1,16.276-16.9q10.584-5.959,24.814-5.959a48.728,48.728,0,0,1,21.612,4.892A38.656,38.656,0,0,1,199.1-5.944Q205.412,4.639,205.412,20.826ZM182.644,12.11Q181.933,3.216,176.6-2.3T161.833-7.812q-20.278,0-24.369,19.922Zm56.92-71.15V69.03H216.8V-59.04Zm58.343,32.729q14.23,0,24.9,6.4A42.905,42.905,0,0,1,339.174-2.476a52.72,52.72,0,0,1,5.692,24.547,52.719,52.719,0,0,1-5.692,24.547A42.905,42.905,0,0,1,322.81,64.05q-10.673,6.4-24.9,6.4T273,64.05A42.905,42.905,0,0,1,256.64,46.618a52.719,52.719,0,0,1-5.692-24.547A52.719,52.719,0,0,1,256.64-2.476,42.905,42.905,0,0,1,273-19.907Q283.677-26.311,297.907-26.311Zm0,76.131q11.206,0,17.7-7.915T322.1,22.071q0-11.918-6.492-19.833t-17.7-7.915q-11.206,0-17.7,7.915t-6.492,19.833q0,11.918,6.492,19.833T297.907,49.82Zm56.209-27.749a52.821,52.821,0,0,1,5.781-24.9,42,42,0,0,1,16.631-17.254q10.85-6.226,25.08-6.226a46.28,46.28,0,0,1,22.234,5.158,39.858,39.858,0,0,1,21.345,31.84H422.775a18.407,18.407,0,0,0-6.581-11.74q-5.514-4.625-14.586-4.625-11.562,0-18.143,7.649t-6.581,20.1q0,12.451,6.581,20.1t18.143,7.649q9.072,0,14.586-4.625a18.407,18.407,0,0,0,6.581-11.74h22.412a40.022,40.022,0,0,1-21.256,31.84q-9.516,5.158-22.323,5.158a48.652,48.652,0,0,1-24.814-6.226,43.35,43.35,0,0,1-16.72-17.254A51.537,51.537,0,0,1,354.116,22.071ZM456.572-59.04H479.34v22.768H456.572Zm0,34.152H479.34V69.03H456.572Zm71.15,19.922V37.9a45.263,45.263,0,0,0,.445,7.827,3.4,3.4,0,0,0,2.312,2.757,26.021,26.021,0,0,0,7.026.623h15.831V69.03H532.7q-9.783,0-15.831-2.579a17.135,17.135,0,0,1-8.983-8.8q-2.935-6.226-2.935-17.432V-4.966H487.878V-24.888h17.076V-50.5h22.768v25.614h25.614V-4.966Zm76.486,40.733a34.187,34.187,0,0,1,1.423,10.673q0,3.024,2.134,3.024T609.9,46.44a33.61,33.61,0,0,1,1.6-10.673l20.1-60.655h24.191L615.948,79.88q-4.8,12.629-12.1,17.965t-19.566,5.336H567.21V83.26h7.826q7.826,0,10.939-.356a8.884,8.884,0,0,0,4.8-1.779,11.448,11.448,0,0,0,2.935-5.158l1.957-5.692L559.028-24.888h24.191Z" transform="translate(193.028 59.04)" fill="url(#a)"/></svg>