<svg xmlns="http://www.w3.org/2000/svg" width="33" height="23" viewBox="0 0 33 23"><g transform="translate(-1019 -89.02)"><rect width="33" height="23" rx="3.5" transform="translate(1019 89.02)" fill="#f1f1f1"/><path d="M288.936,702.767a1.181,1.181,0,0,1-.594.159h-.162a1.588,1.588,0,0,1-.276-.035l.587-2.57a.781.781,0,0,1,.359-.2,1.286,1.286,0,0,1,.306-.039.594.594,0,0,1,.554.245,1.431,1.431,0,0,1,.144.7,2.124,2.124,0,0,1-.117.7,2.171,2.171,0,0,1-.32.6A1.585,1.585,0,0,1,288.936,702.767Zm1.323-3.691a1.639,1.639,0,0,0-.747-.159,1.5,1.5,0,0,0-.387.047,1.927,1.927,0,0,0-.353.128l.551-2.414-1.395.225-1.556,6.81a2.772,2.772,0,0,0,.553.206,5.226,5.226,0,0,0,.553.112,4.153,4.153,0,0,0,.464.043c.135,0,.229,0,.283,0a2.775,2.775,0,0,0,1.17-.248,2.934,2.934,0,0,0,.936-.674,3.2,3.2,0,0,0,.625-1,3.269,3.269,0,0,0,.229-1.222,3,3,0,0,0-.1-.787,1.822,1.822,0,0,0-.306-.637A1.489,1.489,0,0,0,290.259,699.076Zm3.688-.76.205-.9h-1.336l-.205.9Zm1.934,4.573a.892.892,0,0,1-.406-.077.43.43,0,0,1-.207-.216.692.692,0,0,1-.047-.331,2.5,2.5,0,0,1,.07-.413l.405-1.766h1.522l.276-1.172h-1.53l.35-1.488-1.429.231-.9,3.974a5.187,5.187,0,0,0-.129.931,1.774,1.774,0,0,0,.129.783,1.114,1.114,0,0,0,.5.537,2.03,2.03,0,0,0,.987.2,3.292,3.292,0,0,0,.765-.077l.078-.019.278-1.212a1.98,1.98,0,0,1-.278.075A2.148,2.148,0,0,1,295.881,702.889Zm16.233-3.973h-1.336l-.777,3.4h0l-.107.468c-.075.022-.149.041-.223.057a2.149,2.149,0,0,1-.428.043.888.888,0,0,1-.406-.077.435.435,0,0,1-.208-.216.7.7,0,0,1-.046-.331,2.5,2.5,0,0,1,.07-.413l.4-1.767.268-1.171h-1.365l-.618,2.717a5.181,5.181,0,0,0-.129.931,1.774,1.774,0,0,0,.129.783,1.114,1.114,0,0,0,.5.537,2.041,2.041,0,0,0,.987.2A3.292,3.292,0,0,0,309.6,704l.026-.006v0a1.12,1.12,0,0,1-1.241.952,3.05,3.05,0,0,1-.447-.03l-.263,1.152a4.446,4.446,0,0,0,.593.037,3.564,3.564,0,0,0,1.068-.145,2.115,2.115,0,0,0,.785-.439,2.434,2.434,0,0,0,.548-.739,4.6,4.6,0,0,0,.354-1.051l.925-4.046h0Zm-6.553,1.17c-.623,0-.741,0-1,.137a1.49,1.49,0,0,0-.463.417,1.994,1.994,0,0,0-.31.594,2.2,2.2,0,0,0-.112.7,1.484,1.484,0,0,0,.144.711.55.55,0,0,0,.53.262.8.8,0,0,0,.373-.085,1.37,1.37,0,0,0,.355-.28c.012-.156.031-.32.058-.491s.056-.3.084-.437h0l.008-.038Zm.949,1.737a3.231,3.231,0,0,0-.072,1.072,4.546,4.546,0,0,0,.3,1.183h-1.293a1.289,1.289,0,0,1-.161-.419h0c-.006-.029-.012-.054-.019-.077a2.4,2.4,0,0,1-.557.356,1.63,1.63,0,0,1-.684.14,1.656,1.656,0,0,1-.768-.164,1.458,1.458,0,0,1-.521-.439,1.793,1.793,0,0,1-.292-.646,3.49,3.49,0,0,1,.13-2.007,3.133,3.133,0,0,1,.611-1,2.583,2.583,0,0,1,1.922-.91h2.073Zm-7.437,1.106a1.631,1.631,0,0,1-.38-.038l.647-2.8h.527a.653.653,0,0,1,.6.29,1.3,1.3,0,0,1,.172.688,2.426,2.426,0,0,1-.113.758,1.778,1.778,0,0,1-.317.589,1.418,1.418,0,0,1-.493.381A1.487,1.487,0,0,1,299.073,702.929Zm2.687-.711a3.5,3.5,0,0,0,.217-1.258,2.74,2.74,0,0,0-.113-.8,1.8,1.8,0,0,0-.348-.65,1.629,1.629,0,0,0-.6-.438,2.181,2.181,0,0,0-.873-.16h-1.784l-1.555,6.81h1.339l.408-1.705a3.365,3.365,0,0,0,.615.057,2.943,2.943,0,0,0,1.172-.231,2.707,2.707,0,0,0,.923-.645A3,3,0,0,0,301.76,702.218Zm-10.466,1.861,1.179-5.166h1.336l-1.179,5.166Z" transform="translate(736.5 -600.48)" fill="#002855" fill-rule="evenodd"/></g></svg>