<svg xmlns="http://www.w3.org/2000/svg" width="20.75" height="22.607" viewBox="0 0 20.75 22.607"><g transform="translate(-1263.632 -69.249)"><path d="M896.729,405.387v-3.166a4.221,4.221,0,1,0-8.443,0v3.166m-4.652,1.427L883,413.569c-.179,1.921-.27,2.881.049,3.622a3.168,3.168,0,0,0,1.393,1.53c.709.386,1.674.386,3.6.386h8.926c1.929,0,2.894,0,3.6-.386a3.163,3.163,0,0,0,1.393-1.53c.319-.741.229-1.7.049-3.622l-.633-6.754a7.669,7.669,0,0,0-.592-3.046,3.17,3.17,0,0,0-1.364-1.241,7.654,7.654,0,0,0-3.088-.306h-7.66a7.648,7.648,0,0,0-3.087.306,3.165,3.165,0,0,0-1.364,1.241A7.647,7.647,0,0,0,883.634,406.814Z" transform="translate(381.5 -328.001)" fill="none" stroke="#fff" stroke-linecap="round" stroke-linejoin="round" stroke-width="1.5"/></g></svg>