<svg xmlns="http://www.w3.org/2000/svg" xmlns:xlink="http://www.w3.org/1999/xlink" width="548.843" height="104.892" viewBox="0 0 548.843 104.892"><defs><linearGradient id="a" x1="-0.062" y1="0.5" x2="1.029" y2="0.557" gradientUnits="objectBoundingBox"><stop offset="0" stop-color="#6366f1"/><stop offset="1" stop-color="#0bf0ed"/></linearGradient></defs><path d="M-162.78-57.2q14.492,0,23.75,5.463A32.842,32.842,0,0,1-125.515-37.13a47.8,47.8,0,0,1,4.256,20.415A46.736,46.736,0,0,1-125.63,3.7a33.463,33.463,0,0,1-13.687,14.607q-9.316,5.463-23.463,5.463h-30.248V-57.2Zm1.725,67.168A22.959,22.959,0,0,0-147.77,6.23,22.959,22.959,0,0,0-139.6-3.6a31.98,31.98,0,0,0,2.7-13.112,31.98,31.98,0,0,0-2.7-13.112,22.959,22.959,0,0,0-8.166-9.834A22.959,22.959,0,0,0-161.054-43.4h-16.332V9.968ZM-56.852-7.4A35.581,35.581,0,0,1-57.2-2.914h-44.165q.805,6.9,5.061,10.811t11.156,3.91q9.316,0,12.306-9.2h14.952A28.352,28.352,0,0,1-66.8,18.651q-6.843,6.038-18.46,6.038a32.081,32.081,0,0,1-16.447-4.025,26.322,26.322,0,0,1-10.466-11.1,35.415,35.415,0,0,1-3.565-16.159,35.272,35.272,0,0,1,3.68-16.5,26.065,26.065,0,0,1,10.524-10.926,32.164,32.164,0,0,1,16.044-3.853,31.507,31.507,0,0,1,13.974,3.163A25,25,0,0,1-60.935-24.709Q-56.852-17.865-56.852-7.4Zm-14.722-5.636a14.592,14.592,0,0,0-3.91-9.316q-3.45-3.565-9.546-3.565-13.111,0-15.757,12.881Zm43.82,20.472a23.313,23.313,0,0,1,.805,6.671q0,1.725,1.38,1.725t1.38-1.725a23.313,23.313,0,0,1,.805-6.671l13.457-44.4H5.715l-20.7,60.727H-36.15l-20.7-60.727h15.642ZM64.6-7.4a35.578,35.578,0,0,1-.345,4.486H20.091Q20.9,3.987,25.152,7.9t11.156,3.91q9.316,0,12.306-9.2H63.566a28.352,28.352,0,0,1-8.914,16.044Q47.81,24.69,36.193,24.69a32.081,32.081,0,0,1-16.447-4.025A26.322,26.322,0,0,1,9.28,9.565,35.415,35.415,0,0,1,5.715-6.594,35.272,35.272,0,0,1,9.4-23.1,26.065,26.065,0,0,1,19.919-34.025a32.164,32.164,0,0,1,16.044-3.853,31.507,31.507,0,0,1,13.974,3.163A25,25,0,0,1,60.519-24.709Q64.6-17.865,64.6-7.4ZM49.88-13.035a14.592,14.592,0,0,0-3.91-9.316q-3.45-3.565-9.546-3.565-13.111,0-15.757,12.881Zm36.8-46.005V23.769H71.962V-59.04Zm37.724,21.162a30.693,30.693,0,0,1,16.1,4.14,27.742,27.742,0,0,1,10.581,11.271,34.088,34.088,0,0,1,3.68,15.872,34.088,34.088,0,0,1-3.68,15.872A27.742,27.742,0,0,1,140.51,20.549a30.693,30.693,0,0,1-16.1,4.14,30.692,30.692,0,0,1-16.1-4.14A27.742,27.742,0,0,1,97.725,9.278a34.088,34.088,0,0,1-3.68-15.872,34.088,34.088,0,0,1,3.68-15.872,27.742,27.742,0,0,1,10.581-11.271A30.692,30.692,0,0,1,124.408-37.878Zm0,49.226A14.012,14.012,0,0,0,135.852,6.23a19.554,19.554,0,0,0,4.2-12.824,19.554,19.554,0,0,0-4.2-12.824,14.012,14.012,0,0,0-11.444-5.118,14.012,14.012,0,0,0-11.444,5.118,19.554,19.554,0,0,0-4.2,12.824,19.554,19.554,0,0,0,4.2,12.824A14.012,14.012,0,0,0,124.408,11.348ZM160.753-6.594a34.154,34.154,0,0,1,3.738-16.1,27.154,27.154,0,0,1,10.754-11.156,32.006,32.006,0,0,1,16.217-4.025,29.924,29.924,0,0,1,14.377,3.335,25.751,25.751,0,0,1,9.719,8.8,25.866,25.866,0,0,1,4.083,11.789H205.148a11.9,11.9,0,0,0-4.255-7.591q-3.565-2.99-9.431-2.99-7.476,0-11.731,4.946t-4.255,13q0,8.051,4.255,13t11.731,4.946q5.866,0,9.431-2.99A11.9,11.9,0,0,0,205.148.767h14.492a25.866,25.866,0,0,1-4.083,11.789,25.862,25.862,0,0,1-9.661,8.8,29.838,29.838,0,0,1-14.434,3.335,31.458,31.458,0,0,1-16.044-4.025A28.03,28.03,0,0,1,164.606,9.508,33.324,33.324,0,0,1,160.753-6.594ZM227-59.04h14.722v14.722H227Zm0,22.083h14.722V23.769H227Zm46.005,12.881V3.642a29.267,29.267,0,0,0,.288,5.061,2.195,2.195,0,0,0,1.5,1.783,16.825,16.825,0,0,0,4.543.4h10.236V23.769H276.226A26.421,26.421,0,0,1,265.99,22.1a11.079,11.079,0,0,1-5.808-5.693q-1.9-4.025-1.9-11.271V-24.076H247.243V-36.957h11.041V-53.519h14.722v16.562h16.562v12.881ZM322.461,2.262a22.1,22.1,0,0,1,.92,6.9q0,1.955,1.38,1.955t1.38-1.955a21.733,21.733,0,0,1,1.035-6.9l13-39.22h15.642L330.052,30.785q-3.105,8.166-7.821,11.616t-12.651,3.45H298.538V32.971H303.6q5.061,0,7.073-.23a5.745,5.745,0,0,0,3.105-1.15,7.4,7.4,0,0,0,1.9-3.335l1.265-3.68L293.248-36.957H308.89Z" transform="translate(193.028 59.04)" fill="url(#a)"/></svg>