<svg xmlns="http://www.w3.org/2000/svg" width="33" height="23" viewBox="0 0 33 23"><g transform="translate(-1183 -89.02)"><rect width="33" height="23" rx="3.5" transform="translate(1183 89.02)" fill="#f1f1f1"/><path d="M33.179,256.829a6.7,6.7,0,1,1,0-10.2,6.7,6.7,0,1,1,0,10.2Z" transform="translate(1166.5 -151.48)" fill="#ed0006" fill-rule="evenodd"/><path d="M33.179,256.829a6.648,6.648,0,0,0,0-10.2,6.7,6.7,0,1,1,0,10.2Z" transform="translate(1166.5 -151.48)" fill="#f9a000" fill-rule="evenodd"/><path d="M33.179,256.829a6.648,6.648,0,0,0,0-10.2,6.648,6.648,0,0,0,0,10.2Z" transform="translate(1166.5 -151.48)" fill="#ff5e00" fill-rule="evenodd"/></g></svg>