<svg xmlns="http://www.w3.org/2000/svg" width="70.018" height="68.452" viewBox="0 0 70.018 68.452"><path d="M641.26,361.39c.822-1.587,1.235-2.38,1.788-2.639a1.81,1.81,0,0,1,1.519,0c.553.258.966,1.052,1.788,2.639l5.432,10.458a4.236,4.236,0,0,0,.8,1.253,1.787,1.787,0,0,0,.826.4,4.138,4.138,0,0,0,1.479-.154l11.561-2.272c1.756-.345,2.631-.517,3.177-.248a1.8,1.8,0,0,1,.948,1.188c.143.592-.219,1.411-.948,3.044l-4.786,10.767a4.164,4.164,0,0,0-.485,1.407,1.835,1.835,0,0,0,.2.89,4.144,4.144,0,0,0,1.045,1.059l8.986,7.622c1.364,1.156,2.043,1.734,2.172,2.33a1.8,1.8,0,0,1-.337,1.483c-.373.481-1.239.707-2.969,1.156l-11.4,2.969a4.062,4.062,0,0,0-1.4.5,1.763,1.763,0,0,0-.571.714,4.135,4.135,0,0,0-.176,1.476l-.359,11.776c-.054,1.788-.083,2.682-.467,3.156a1.791,1.791,0,0,1-1.368.657c-.61.011-1.325-.528-2.757-1.6l-9.431-7.065a4.161,4.161,0,0,0-1.264-.783,1.8,1.8,0,0,0-.916,0,4.155,4.155,0,0,0-1.264.783l-9.431,7.065c-1.432,1.07-2.147,1.608-2.757,1.6a1.791,1.791,0,0,1-1.368-.657c-.384-.474-.413-1.368-.467-3.156L627.7,407.43a4.046,4.046,0,0,0-.176-1.476,1.787,1.787,0,0,0-.567-.714,4.119,4.119,0,0,0-1.4-.5l-11.4-2.969c-1.73-.449-2.6-.675-2.969-1.156a1.8,1.8,0,0,1-.338-1.483c.129-.6.812-1.174,2.172-2.33l8.986-7.622a4.155,4.155,0,0,0,1.045-1.059,1.835,1.835,0,0,0,.2-.89,4.162,4.162,0,0,0-.485-1.407l-4.786-10.767c-.725-1.634-1.092-2.452-.948-3.044a1.8,1.8,0,0,1,.948-1.188c.545-.269,1.422-.1,3.177.248l11.56,2.272a4.153,4.153,0,0,0,1.483.154,1.792,1.792,0,0,0,.822-.4,4.167,4.167,0,0,0,.8-1.253Z" transform="translate(-608.798 -356.567)" fill="none" stroke="#fff" stroke-linecap="round" stroke-linejoin="round" stroke-width="4"/></svg>