<svg xmlns="http://www.w3.org/2000/svg" width="245.491" height="47.3" viewBox="0 0 245.491 47.3"><path d="M-179.532-58.219a20.631,20.631,0,0,1,10.6,2.437,14.653,14.653,0,0,1,6.03,6.517,21.329,21.329,0,0,1,1.9,9.109,20.852,20.852,0,0,1-1.95,9.109,14.93,14.93,0,0,1-6.107,6.517,20.435,20.435,0,0,1-10.468,2.437h-13.5V-58.219Zm.77,29.968a10.244,10.244,0,0,0,5.927-1.668,10.243,10.243,0,0,0,3.643-4.387,14.268,14.268,0,0,0,1.206-5.85,14.268,14.268,0,0,0-1.206-5.85,10.243,10.243,0,0,0-3.643-4.387,10.244,10.244,0,0,0-5.927-1.668h-7.287v23.81ZM-132.27-36a15.875,15.875,0,0,1-.154,2h-19.705a7.463,7.463,0,0,0,2.258,4.824,7.067,7.067,0,0,0,4.978,1.745,5.342,5.342,0,0,0,5.491-4.105h6.671a12.65,12.65,0,0,1-3.977,7.159,12,12,0,0,1-8.236,2.694,14.314,14.314,0,0,1-7.338-1.8,11.744,11.744,0,0,1-4.67-4.952,15.8,15.8,0,0,1-1.591-7.21A15.737,15.737,0,0,1-156.9-43a11.63,11.63,0,0,1,4.7-4.875,14.351,14.351,0,0,1,7.159-1.719,14.058,14.058,0,0,1,6.235,1.411,11.152,11.152,0,0,1,4.721,4.464A14.876,14.876,0,0,1-132.27-36Zm-6.568-2.514a6.511,6.511,0,0,0-1.745-4.157,5.65,5.65,0,0,0-4.259-1.591q-5.85,0-7.03,5.747Zm19.551,9.134a10.4,10.4,0,0,1,.359,2.976q0,.77.616.77t.616-.77a10.4,10.4,0,0,1,.359-2.976l6-19.808h6.979l-9.237,27.095h-9.442l-9.237-27.095h6.979ZM-78.081-36a15.875,15.875,0,0,1-.154,2H-97.94a7.463,7.463,0,0,0,2.258,4.824A7.067,7.067,0,0,0-90.7-27.43a5.342,5.342,0,0,0,5.491-4.105h6.671a12.65,12.65,0,0,1-3.977,7.159,12,12,0,0,1-8.236,2.694,14.314,14.314,0,0,1-7.338-1.8,11.744,11.744,0,0,1-4.67-4.952,15.8,15.8,0,0,1-1.591-7.21A15.737,15.737,0,0,1-102.713-43a11.63,11.63,0,0,1,4.7-4.875A14.35,14.35,0,0,1-90.859-49.6a14.058,14.058,0,0,1,6.235,1.411A11.152,11.152,0,0,1-79.9-43.722,14.876,14.876,0,0,1-78.081-36Zm-6.568-2.514a6.511,6.511,0,0,0-1.745-4.157,5.65,5.65,0,0,0-4.259-1.591q-5.85,0-7.03,5.747ZM-68.228-59.04v36.947H-74.8V-59.04ZM-51.4-49.6a13.694,13.694,0,0,1,7.184,1.847,12.378,12.378,0,0,1,4.721,5.029A15.209,15.209,0,0,1-37.85-35.64a15.209,15.209,0,0,1-1.642,7.082,12.378,12.378,0,0,1-4.721,5.029A13.694,13.694,0,0,1-51.4-21.682a13.694,13.694,0,0,1-7.184-1.847A12.378,12.378,0,0,1-63.3-28.559a15.209,15.209,0,0,1-1.642-7.082A15.209,15.209,0,0,1-63.3-42.722a12.378,12.378,0,0,1,4.721-5.029A13.694,13.694,0,0,1-51.4-49.6Zm0,21.963a6.252,6.252,0,0,0,5.106-2.284,8.724,8.724,0,0,0,1.873-5.722,8.725,8.725,0,0,0-1.873-5.722A6.252,6.252,0,0,0-51.4-43.645,6.252,6.252,0,0,0-56.5-41.362a8.724,8.724,0,0,0-1.873,5.722A8.724,8.724,0,0,0-56.5-29.918,6.252,6.252,0,0,0-51.4-27.635Zm16.216-8.005a15.239,15.239,0,0,1,1.668-7.184,12.115,12.115,0,0,1,4.8-4.978,14.28,14.28,0,0,1,7.235-1.8,13.351,13.351,0,0,1,6.414,1.488,11.489,11.489,0,0,1,4.336,3.926,11.541,11.541,0,0,1,1.822,5.26h-6.466a5.31,5.31,0,0,0-1.9-3.387,6.332,6.332,0,0,0-4.208-1.334,6.54,6.54,0,0,0-5.234,2.207,8.579,8.579,0,0,0-1.9,5.8,8.579,8.579,0,0,0,1.9,5.8,6.54,6.54,0,0,0,5.234,2.207,6.332,6.332,0,0,0,4.208-1.334,5.31,5.31,0,0,0,1.9-3.387h6.466a11.541,11.541,0,0,1-1.822,5.26A11.539,11.539,0,0,1-15.04-23.17a13.313,13.313,0,0,1-6.44,1.488,14.036,14.036,0,0,1-7.159-1.8,12.506,12.506,0,0,1-4.824-4.978A14.868,14.868,0,0,1-35.181-35.64Zm29.558-23.4H.945v6.568H-5.623Zm0,9.853H.945v27.095H-5.623ZM14.9-43.44v12.367a13.058,13.058,0,0,0,.128,2.258.979.979,0,0,0,.667.8,7.507,7.507,0,0,0,2.027.18h4.567v5.747H16.34a11.788,11.788,0,0,1-4.567-.744,4.943,4.943,0,0,1-2.591-2.54,12.062,12.062,0,0,1-.847-5.029V-43.44H3.408v-5.747H8.334v-7.389H14.9v7.389h7.389v5.747ZM36.969-31.689a9.863,9.863,0,0,1,.411,3.079q0,.872.616.872t.616-.872a9.7,9.7,0,0,1,.462-3.079l5.8-17.5H51.85L40.355-18.963a11.121,11.121,0,0,1-3.489,5.183,9.358,9.358,0,0,1-5.645,1.539H26.295v-5.747h2.258q2.258,0,3.156-.1a2.563,2.563,0,0,0,1.386-.513,3.3,3.3,0,0,0,.847-1.488l.564-1.642L23.934-49.187h6.979Z" transform="translate(193.278 59.29)" fill="none" stroke="#fff" stroke-width="0.5"/></svg>