<svg xmlns="http://www.w3.org/2000/svg" width="33" height="23" viewBox="0 0 33 23"><g transform="translate(-1060 -89.02)"><rect width="33" height="23" rx="3.5" transform="translate(1060 89.02)" fill="#f1f1f1"/><path d="M30.615,931.448,30.835,930l-.492-.012H28l1.632-10.693a.14.14,0,0,1,.046-.084.127.127,0,0,1,.087-.033h3.959a3.45,3.45,0,0,1,2.695.84,1.942,1.942,0,0,1,.432.837,3.117,3.117,0,0,1,0,1.153l-.005.034v.295l.222.13a1.543,1.543,0,0,1,.45.354,1.676,1.676,0,0,1,.365.845,3.69,3.69,0,0,1-.052,1.227,4.419,4.419,0,0,1-.486,1.389,2.832,2.832,0,0,1-.77.872,3.073,3.073,0,0,1-1.037.484,5.013,5.013,0,0,1-1.3.155h-.308a.917.917,0,0,0-.6.229.972.972,0,0,0-.314.579l-.023.131-.39,2.554-.018.094a.082.082,0,0,1-.025.054.064.064,0,0,1-.04.015Z" transform="translate(1043.5 -824.48)" fill="#28356a" fill-rule="evenodd"/><path d="M37.276,922.075c-.012.078-.025.157-.04.239-.522,2.771-2.308,3.728-4.59,3.728H31.484a.571.571,0,0,0-.557.494l-.763,5a.3.3,0,0,0,.293.355h2.06a.5.5,0,0,0,.49-.431l.02-.109.388-2.544.025-.139a.5.5,0,0,1,.49-.433h.308a3.658,3.658,0,0,0,4.015-3.262,2.851,2.851,0,0,0-.413-2.452A1.975,1.975,0,0,0,37.276,922.075Z" transform="translate(1043.5 -824.48)" fill="#298fc2" fill-rule="evenodd"/><path d="M36.729,921.85c-.08-.025-.162-.046-.247-.066s-.172-.036-.261-.051a6.291,6.291,0,0,0-1.024-.077h-3.1a.483.483,0,0,0-.214.05.509.509,0,0,0-.275.383l-.66,4.321-.019.126a.571.571,0,0,1,.558-.494h1.162c2.281,0,4.067-.957,4.59-3.727.016-.082.029-.162.04-.24a2.7,2.7,0,0,0-.429-.188Z" transform="translate(1043.5 -824.48)" fill="#22284f" fill-rule="evenodd"/><path d="M31.606,922.089a.506.506,0,0,1,.275-.382.472.472,0,0,1,.214-.051h3.1a6.174,6.174,0,0,1,1.024.078c.089.014.176.031.261.051s.167.041.246.065l.117.037a2.79,2.79,0,0,1,.429.188,2.683,2.683,0,0,0-.537-2.353,3.854,3.854,0,0,0-3.02-.992H29.76a.571.571,0,0,0-.559.494l-1.649,10.8a.347.347,0,0,0,.336.406h2.444Z" transform="translate(1043.5 -824.48)" fill="#28356a" fill-rule="evenodd"/></g></svg>