<svg xmlns="http://www.w3.org/2000/svg" width="68" height="48.8" viewBox="0 0 68 48.8"><path d="M130,817H66m28.8,12.8h-16M66,811.24v24.32c0,3.584,0,5.376.7,6.746a6.407,6.407,0,0,0,2.8,2.8c1.369.7,3.161.7,6.746.7h43.52c3.584,0,5.377,0,6.746-.7a6.408,6.408,0,0,0,2.8-2.8c.7-1.37.7-3.162.7-6.746V811.24c0-3.584,0-5.376-.7-6.746a6.409,6.409,0,0,0-2.8-2.8c-1.369-.7-3.161-.7-6.746-.7H76.24c-3.584,0-5.377,0-6.746.7a6.409,6.409,0,0,0-2.8,2.8C66,805.864,66,807.656,66,811.24Z" transform="translate(-64 -799)" fill="none" stroke="#fff" stroke-linecap="round" stroke-linejoin="round" stroke-width="4"/></svg>