<svg xmlns="http://www.w3.org/2000/svg" width="33" height="23" viewBox="0 0 33 23"><g transform="translate(-1101 -89.02)"><rect width="33" height="23" rx="3.5" transform="translate(1101 89.02)" fill="#f1f1f1"/><path d="M300.268,865.142l-1.727.381v-1.441l1.727-.374Zm3.592.8a1.915,1.915,0,0,0-1.349.552l-.089-.439h-1.514v8.239l1.72-.374.007-2a1.907,1.907,0,0,0,1.218.445c1.231,0,2.353-1.017,2.353-3.257C306.2,867.057,305.064,865.94,303.86,865.94Zm-.413,4.869a1.018,1.018,0,0,1-.812-.332l-.007-2.622a1.012,1.012,0,0,1,.819-.346c.626,0,1.059.721,1.059,1.646C304.506,870.1,304.08,870.809,303.447,870.809Zm8.181-1.632c0-1.809-.853-3.237-2.484-3.237s-2.628,1.428-2.628,3.222c0,2.127,1.17,3.2,2.849,3.2a3.754,3.754,0,0,0,1.906-.459v-1.413a3.58,3.58,0,0,1-1.686.389c-.668,0-1.259-.241-1.335-1.074h3.365c0-.039,0-.128.005-.23h0C311.624,869.438,311.628,869.274,311.628,869.177Zm-3.4-.672c0-.8.475-1.13.908-1.13s.867.332.867,1.13Zm-9.688-2.444h1.727v6.182h-1.727Zm-1.961,0,.11.522a1.151,1.151,0,0,1,1.431-.522v1.625a1.191,1.191,0,0,0-1.307.367v4.19h-1.721v-6.182Zm-3.331-1.534-1.679.368-.007,5.659a1.752,1.752,0,0,0,1.783,1.816,2.6,2.6,0,0,0,1.2-.233V870.7c-.22.092-1.308.417-1.308-.629v-2.508h1.308V866.06h-1.308Zm-4.066,2.947c-.365,0-.585.106-.585.381,0,.3.379.434.849.6.766.267,1.775.62,1.779,1.925,0,1.265-.984,1.992-2.415,1.992a4.669,4.669,0,0,1-1.878-.4v-1.682a4.2,4.2,0,0,0,1.878.565c.385,0,.661-.106.661-.431s-.411-.485-.907-.669c-.755-.28-1.708-.634-1.708-1.811,0-1.251.929-2,2.326-2a4.433,4.433,0,0,1,1.706.325v1.661A3.752,3.752,0,0,0,289.183,867.474Z" transform="translate(818.5 -768.48)" fill="#6461fc" fill-rule="evenodd"/></g></svg>