<svg xmlns="http://www.w3.org/2000/svg" width="94.202" height="57.611" viewBox="0 0 94.202 57.611"><g transform="translate(-31.155 -55.378)"><path d="M60.271,40.26a10.51,10.51,0,0,1-7.432-17.944,10.762,10.762,0,0,1,14.863,0,10.511,10.511,0,0,1,0,14.868,10.452,10.452,0,0,1-7.432,3.076m0-16.263a5.72,5.72,0,0,0-4.066,1.685,5.753,5.753,0,0,0,0,8.136,5.919,5.919,0,0,0,8.132,0,5.747,5.747,0,0,0,0-8.132A5.728,5.728,0,0,0,60.271,24M19.618,40.26a10.513,10.513,0,0,1-7.436-17.944,10.826,10.826,0,0,1,14.873,0A10.512,10.512,0,0,1,19.618,40.26m0-16.263a5.72,5.72,0,0,0-4.066,1.685,5.753,5.753,0,0,0,0,8.136,5.957,5.957,0,0,0,8.132,0A5.753,5.753,0,0,0,19.618,24" transform="translate(34.246 72.729)" fill="#fff"/><path d="M62.1,61.111H53.771a2.38,2.38,0,0,1,0-4.761H62.1l.062-19.976a2.38,2.38,0,0,1,4.761,0V56.289a4.928,4.928,0,0,1-.367,1.842,4.849,4.849,0,0,1-2.609,2.614,4.842,4.842,0,0,1-1.847.367m-26.223,0h-22.5V16.455A4.828,4.828,0,0,1,18.2,11.632H72.676a2.38,2.38,0,0,1,0,4.761H18.2l-.057,39.958H35.879a2.38,2.38,0,1,1,0,4.761" transform="translate(50.301 43.746)" fill="#fff"/><path d="M39.7,18.955H23.441a2.38,2.38,0,0,1,0-4.761H39.7a2.38,2.38,0,0,1,0,4.761" transform="translate(79.207 53.381)" fill="#fff"/><path d="M41.446,51.476H37.385a2.38,2.38,0,1,1,0-4.761h4.061a2.38,2.38,0,1,1,0,4.761m-22.357,0H11.367A4.824,4.824,0,0,1,9.52,51.11a4.755,4.755,0,0,1-1.562-1.043,4.668,4.668,0,0,1-1.052-1.581,4.814,4.814,0,0,1-.362-1.828V35.389a4.825,4.825,0,0,1,.419-1.961l7.275-16.373a4.825,4.825,0,0,1,4.4-2.861h22.8a2.38,2.38,0,0,1,0,4.761h-22.8L11.314,35.361l-.01,11.3,7.784.057a2.38,2.38,0,1,1,0,4.761" transform="translate(24.611 53.381)" fill="#fff"/></g></svg>