<svg xmlns="http://www.w3.org/2000/svg" width="33" height="23" viewBox="0 0 33 23"><g transform="translate(-1142 -89.02)"><rect width="33" height="23" rx="3.5" transform="translate(1142 89.02)" fill="#f1f1f1"/><path d="M26.75,31.858H24.69l-1.545-6.066a.977.977,0,0,0-.458-.642,6.573,6.573,0,0,0-1.888-.642v-.233h3.318a.873.873,0,0,1,.859.758l.8,4.375,2.059-5.134h2Zm4.234,0H29.039l1.6-7.583h1.945ZM35.1,26.376a.759.759,0,0,1,.8-.642,3.535,3.535,0,0,1,1.888.35l.343-1.633a4.8,4.8,0,0,0-1.773-.351c-1.888,0-3.262,1.05-3.262,2.508,0,1.109.973,1.691,1.66,2.042.743.35,1.029.583.972.933,0,.525-.573.758-1.144.758a4.789,4.789,0,0,1-2-.467l-.343,1.634a5.471,5.471,0,0,0,2.117.409c2.117.058,3.432-.992,3.432-2.567C37.792,27.366,35.1,27.25,35.1,26.376Zm9.5,5.483-1.544-7.583H41.4a.863.863,0,0,0-.8.583l-2.86,7h2l.4-1.108H42.6l.229,1.108Zm-2.917-5.541.571,2.858h-1.6Z" transform="translate(1125.5 72.52)" fill="#172b85" fill-rule="evenodd"/></g></svg>